<mxfile host="Electron" agent="Mozilla/5.0 (X11; Linux x86_64) AppleWebKit/537.36 (KHTML, like Gecko) draw.io/24.7.5 Chrome/126.0.6478.183 Electron/31.3.0 Safari/537.36" version="24.7.5">
  <diagram name="Page-1" id="WTdcYwqOsGaECzDHZSSS">
    <mxGraphModel dx="1420" dy="899" grid="1" gridSize="10" guides="1" tooltips="1" connect="1" arrows="1" fold="1" page="1" pageScale="1" pageWidth="720" pageHeight="260" math="1" shadow="0">
      <root>
        <mxCell id="0" />
        <mxCell id="1" parent="0" />
        <mxCell id="WwFarxsskViaYb_qkMFZ-17" value="" style="ellipse;whiteSpace=wrap;html=1;aspect=fixed;fillColor=none;" vertex="1" parent="1">
          <mxGeometry x="210" y="150" width="80" height="80" as="geometry" />
        </mxCell>
        <mxCell id="WwFarxsskViaYb_qkMFZ-1" value="$$A_1$$" style="ellipse;whiteSpace=wrap;html=1;aspect=fixed;" vertex="1" parent="1">
          <mxGeometry x="230" y="10" width="40" height="40" as="geometry" />
        </mxCell>
        <mxCell id="WwFarxsskViaYb_qkMFZ-6" value="$$A_3$$" style="ellipse;whiteSpace=wrap;html=1;aspect=fixed;" vertex="1" parent="1">
          <mxGeometry x="450" y="70" width="40" height="40" as="geometry" />
        </mxCell>
        <mxCell id="WwFarxsskViaYb_qkMFZ-7" value="$$A_4$$" style="ellipse;whiteSpace=wrap;html=1;aspect=fixed;" vertex="1" parent="1">
          <mxGeometry x="230" y="130" width="40" height="40" as="geometry" />
        </mxCell>
        <mxCell id="WwFarxsskViaYb_qkMFZ-8" value="$$A_5$$" style="ellipse;whiteSpace=wrap;html=1;aspect=fixed;" vertex="1" parent="1">
          <mxGeometry x="670" y="70" width="40" height="40" as="geometry" />
        </mxCell>
        <mxCell id="WwFarxsskViaYb_qkMFZ-9" value="$$A_2$$" style="ellipse;whiteSpace=wrap;html=1;aspect=fixed;" vertex="1" parent="1">
          <mxGeometry x="10" y="70" width="40" height="40" as="geometry" />
        </mxCell>
        <mxCell id="WwFarxsskViaYb_qkMFZ-10" value="$$\,A_1 &amp;gt; A_3\,$$" style="endArrow=none;html=1;rounded=0;" edge="1" parent="1" source="WwFarxsskViaYb_qkMFZ-1" target="WwFarxsskViaYb_qkMFZ-6">
          <mxGeometry width="50" height="50" relative="1" as="geometry">
            <mxPoint x="300" y="330" as="sourcePoint" />
            <mxPoint x="350" y="280" as="targetPoint" />
          </mxGeometry>
        </mxCell>
        <mxCell id="WwFarxsskViaYb_qkMFZ-11" value="&lt;span style=&quot;color: rgb(0, 0, 0); font-family: Helvetica; font-size: 11px; font-style: normal; font-variant-ligatures: normal; font-variant-caps: normal; font-weight: 400; letter-spacing: normal; orphans: 2; text-align: center; text-indent: 0px; text-transform: none; widows: 2; word-spacing: 0px; -webkit-text-stroke-width: 0px; white-space: nowrap; background-color: rgb(255, 255, 255); text-decoration-thickness: initial; text-decoration-style: initial; text-decoration-color: initial; display: inline !important; float: none;&quot;&gt;$$\,A_3 &amp;lt; A_4\,$$&lt;/span&gt;" style="endArrow=none;html=1;rounded=0;" edge="1" parent="1" source="WwFarxsskViaYb_qkMFZ-6" target="WwFarxsskViaYb_qkMFZ-7">
          <mxGeometry width="50" height="50" relative="1" as="geometry">
            <mxPoint x="120" y="116" as="sourcePoint" />
            <mxPoint x="270" y="84" as="targetPoint" />
          </mxGeometry>
        </mxCell>
        <mxCell id="WwFarxsskViaYb_qkMFZ-12" value="&lt;span style=&quot;color: rgb(0, 0, 0); font-family: Helvetica; font-size: 11px; font-style: normal; font-variant-ligatures: normal; font-variant-caps: normal; font-weight: 400; letter-spacing: normal; orphans: 2; text-align: center; text-indent: 0px; text-transform: none; widows: 2; word-spacing: 0px; -webkit-text-stroke-width: 0px; white-space: nowrap; background-color: rgb(255, 255, 255); text-decoration-thickness: initial; text-decoration-style: initial; text-decoration-color: initial; display: inline !important; float: none;&quot;&gt;$$\,A_3 &amp;gt; A_5\,$$&lt;/span&gt;" style="endArrow=none;html=1;rounded=0;" edge="1" parent="1" source="WwFarxsskViaYb_qkMFZ-6" target="WwFarxsskViaYb_qkMFZ-8">
          <mxGeometry width="50" height="50" relative="1" as="geometry">
            <mxPoint x="482" y="199" as="sourcePoint" />
            <mxPoint x="188" y="341" as="targetPoint" />
          </mxGeometry>
        </mxCell>
        <mxCell id="WwFarxsskViaYb_qkMFZ-13" value="$$\,A_2 \neq A_1\,$$" style="endArrow=none;html=1;rounded=0;" edge="1" parent="1" source="WwFarxsskViaYb_qkMFZ-9" target="WwFarxsskViaYb_qkMFZ-1">
          <mxGeometry width="50" height="50" relative="1" as="geometry">
            <mxPoint x="482" y="199" as="sourcePoint" />
            <mxPoint x="188" y="341" as="targetPoint" />
          </mxGeometry>
        </mxCell>
        <mxCell id="WwFarxsskViaYb_qkMFZ-14" value="$$\,A_2 \neq A_4\,$$" style="endArrow=none;html=1;rounded=0;" edge="1" parent="1" source="WwFarxsskViaYb_qkMFZ-9" target="WwFarxsskViaYb_qkMFZ-7">
          <mxGeometry width="50" height="50" relative="1" as="geometry">
            <mxPoint x="492" y="209" as="sourcePoint" />
            <mxPoint x="198" y="351" as="targetPoint" />
          </mxGeometry>
        </mxCell>
        <mxCell id="WwFarxsskViaYb_qkMFZ-19" value="&lt;span style=&quot;font-size: 11px; text-wrap: nowrap; background-color: rgb(255, 255, 255);&quot;&gt;$$\,A_4 \neq 10\,$$&lt;/span&gt;" style="text;strokeColor=none;fillColor=default;align=center;verticalAlign=middle;spacingLeft=4;spacingRight=4;overflow=hidden;points=[[0,0.5],[1,0.5]];portConstraint=eastwest;rotatable=0;whiteSpace=wrap;html=1;" vertex="1" parent="1">
          <mxGeometry x="220" y="210" width="60" height="40" as="geometry" />
        </mxCell>
      </root>
    </mxGraphModel>
  </diagram>
</mxfile>
